# xmcd CD database file
#
# Track frame offsets:
#	150
#	10510
#	23066
#	34018
#	55628
#	67965
#	81186
#	94263
#	109626
#	130138
#	145536
#	169171
#	198739
#	222384
#	236150
#	251464
#	269328
#
# Disc length: 3775 seconds
#
# Revision: 1
# Processed by: cddbd v1.5.2PL0 Copyright (c) Steve Scherf et al.
# Submitted via: CDex 1.77
#
DISCID=e30ebd11
DTITLE=Louis Armstrong - Louis Armstrong CD1
DYEAR=2014
DGENRE=Jazz
TTITLE0=What A Wonderful World
TTITLE1=Cabaret
TTITLE2=Hello, Dolly!
TTITLE3=A Woman Is A Sometime Thing
TTITLE4=When The Saint Go Marching In
TTITLE5=Ain't Misbehavin'
TTITLE6=Blueberry Hill
TTITLE7=Georgia On My Mind
TTITLE8=A Foggy Day
TTITLE9=La Vie En Rose
TTITLE10=Sweet Lorraine
TTITLE11=April In Paris
TTITLE12=Blues In The Night
TTITLE13=A Kiss To Build A Dream On
TTITLE14=Jeannine (I Dream Of Lilac Time)
TTITLE15=Makin' Whoopee
TTITLE16=Dream A Little Dream Of Me
EXTD=YEAR: 2014
EXTT0=
EXTT1=
EXTT2=
EXTT3=
EXTT4=
EXTT5=
EXTT6=
EXTT7=
EXTT8=
EXTT9=
EXTT10=
EXTT11=
EXTT12=
EXTT13=
EXTT14=
EXTT15=
EXTT16=
PLAYORDER=
